<svg id="visual" viewBox="0 0 900 600" width="900" height="600" xmlns="http://www.w3.org/2000/svg" xmlns:xlink="http://www.w3.org/1999/xlink" version="1.1"><rect x="0" y="0" width="900" height="600" fill="#001220"></rect><defs><linearGradient id="grad1_0" x1="33.3%" y1="0%" x2="100%" y2="100%"><stop offset="20%" stop-color="#fbae3c" stop-opacity="1"></stop><stop offset="80%" stop-color="#fbae3c" stop-opacity="1"></stop></linearGradient></defs><defs><linearGradient id="grad1_1" x1="33.3%" y1="0%" x2="100%" y2="100%"><stop offset="20%" stop-color="#fbae3c" stop-opacity="1"></stop><stop offset="80%" stop-color="#96446e" stop-opacity="1"></stop></linearGradient></defs><defs><linearGradient id="grad1_2" x1="33.3%" y1="0%" x2="100%" y2="100%"><stop offset="20%" stop-color="#001220" stop-opacity="1"></stop><stop offset="80%" stop-color="#96446e" stop-opacity="1"></stop></linearGradient></defs><defs><linearGradient id="grad2_0" x1="0%" y1="0%" x2="66.7%" y2="100%"><stop offset="20%" stop-color="#fbae3c" stop-opacity="1"></stop><stop offset="80%" stop-color="#fbae3c" stop-opacity="1"></stop></linearGradient></defs><defs><linearGradient id="grad2_1" x1="0%" y1="0%" x2="66.7%" y2="100%"><stop offset="20%" stop-color="#96446e" stop-opacity="1"></stop><stop offset="80%" stop-color="#fbae3c" stop-opacity="1"></stop></linearGradient></defs><defs><linearGradient id="grad2_2" x1="0%" y1="0%" x2="66.7%" y2="100%"><stop offset="20%" stop-color="#96446e" stop-opacity="1"></stop><stop offset="80%" stop-color="#001220" stop-opacity="1"></stop></linearGradient></defs><g transform="translate(900, 0)"><path d="M0 486.7C-67.6 484.6 -135.3 482.4 -186.3 449.7C-237.2 417 -271.5 353.8 -301.9 301.9C-332.3 250.1 -358.8 209.5 -389 161.1C-419.1 112.7 -452.9 56.3 -486.7 0L0 0Z" fill="#3d3056"></path><path d="M0 324.5C-45.1 323 -90.2 321.6 -124.2 299.8C-158.2 278 -181 235.9 -201.3 201.3C-221.5 166.7 -239.2 139.7 -259.3 107.4C-279.4 75.1 -302 37.6 -324.5 0L0 0Z" fill="#e1685e"></path><path d="M0 162.2C-22.5 161.5 -45.1 160.8 -62.1 149.9C-79.1 139 -90.5 117.9 -100.6 100.6C-110.8 83.4 -119.6 69.8 -129.7 53.7C-139.7 37.6 -151 18.8 -162.2 0L0 0Z" fill="#fbae3c"></path></g><g transform="translate(0, 600)"><path d="M0 -486.7C45.8 -439.3 91.6 -391.8 155.8 -376C219.9 -360.2 302.5 -376.1 344.2 -344.2C385.9 -312.3 386.8 -232.6 403.7 -167.2C420.7 -101.9 453.7 -51 486.7 0L0 0Z" fill="#3d3056"></path><path d="M0 -324.5C30.5 -292.9 61.1 -261.2 103.8 -250.7C146.6 -240.1 201.6 -250.7 229.5 -229.5C257.3 -208.2 257.9 -155 269.2 -111.5C280.5 -67.9 302.5 -34 324.5 0L0 0Z" fill="#e1685e"></path><path d="M0 -162.2C15.3 -146.4 30.5 -130.6 51.9 -125.3C73.3 -120.1 100.8 -125.4 114.7 -114.7C128.6 -104.1 128.9 -77.5 134.6 -55.7C140.2 -34 151.2 -17 162.2 0L0 0Z" fill="#fbae3c"></path></g></svg>